<svg width="28" height="28" viewBox="0 0 28 28" fill="none" xmlns="http://www.w3.org/2000/svg">
<path d="M10.6527 1.98143C11.636 1.03107 12.4788 -0.0176398 13.9647 0.000225115C14.0313 0.000921974 14.0977 0.00374006 14.1641 0.00868143C14.2306 0.0136228 14.2968 0.0206885 14.3627 0.0298744C14.4287 0.0390603 14.4943 0.0503355 14.5595 0.0637026C14.6247 0.0770696 14.6895 0.0925278 14.7538 0.110076C14.818 0.127624 14.8816 0.147198 14.9446 0.1688C15.0076 0.190403 15.0698 0.214001 15.1313 0.239594C15.1928 0.265188 15.2534 0.292748 15.3131 0.32227C15.3728 0.351728 15.4315 0.383086 15.4892 0.416345C16.2937 0.885869 18.3882 3.12203 19.1777 3.90827C17.1042 3.89358 15.0307 3.89117 12.9571 3.90105C11.5454 3.89782 10.1218 3.84793 8.71191 3.90124C9.35309 3.25551 10 2.61557 10.6527 1.98143Z" fill="#FAB005"/>
<path d="M19.1778 3.90837C20.1006 3.5389 21.0339 3.46279 21.9654 3.86266C22.8149 4.22718 23.5227 4.92543 23.8641 5.78789C24.2339 6.72228 24.1181 7.57704 23.789 8.5007C23.288 9.14175 22.6656 9.69043 22.0846 10.2572L19.99 12.3315C20.0233 11.5324 20.177 10.7294 20.1731 9.93189C20.1699 9.26642 19.927 8.57881 19.439 8.11347C18.4387 7.15978 16.6905 7.58949 15.4423 7.62855C15.9325 6.97667 16.5945 6.40471 17.1728 5.82714C17.8248 5.17611 18.4381 4.46161 19.1778 3.90837Z" fill="#FAB005"/>
<path d="M13.9078 9.43555C14.2138 9.45968 14.4582 9.49883 14.7211 9.67083C15.2082 9.98955 17.2912 12.1095 17.6983 12.6342C17.8487 12.8281 18.0362 13.0956 18.0718 13.3419C18.1284 13.7323 18.0064 14.2045 17.775 14.5219C17.482 14.9239 15.0373 17.3716 14.6268 17.6159C14.4082 17.746 14.1565 17.7787 13.9096 17.8133C13.5539 17.7712 13.3194 17.6939 13.0294 17.4806C12.5644 17.1385 10.3851 14.9647 10.0545 14.4861C9.88492 14.2405 9.75787 13.9557 9.72147 13.6576C9.67044 13.2404 9.92283 12.8329 10.1749 12.5216C10.5602 12.0458 12.6502 9.94099 13.1129 9.66256C13.3733 9.50577 13.6131 9.4671 13.9078 9.43555Z" fill="#FAB005"/>
<path d="M4.14942 8.39107C4.07445 8.17466 4.01726 7.95363 3.97785 7.72797C3.93844 7.50232 3.91732 7.27499 3.91449 7.04597C3.90668 6.11595 4.31013 5.27677 4.95741 4.6209C5.60026 3.9695 6.44714 3.66009 7.3553 3.66114C7.76781 3.66152 8.29245 3.71996 8.65735 3.92607C9.20176 4.23367 9.7169 4.87196 10.1618 5.31478C10.9306 6.0774 11.6953 6.84401 12.4561 7.61461C11.6243 7.60102 10.7598 7.38436 9.93517 7.45231C9.27987 7.50638 8.68462 7.79839 8.27126 8.31438C7.38267 9.42372 7.71203 10.8619 7.86455 12.152C7.2943 11.6303 6.77165 11.0433 6.22459 10.4963C5.54344 9.81523 4.8163 9.16059 4.19955 8.41948C4.22661 9.84687 4.20504 11.279 4.20549 12.7068C4.21278 14.6977 4.20336 16.6885 4.17722 18.6793C4.69889 17.9475 5.40755 17.3428 6.04689 16.7141C6.63415 16.1366 7.20203 15.5306 7.81884 14.9848C7.78131 15.6864 7.59724 16.4089 7.64029 17.1095C7.68343 17.8125 7.96984 18.4884 8.50968 18.9527C9.63802 19.923 11.0239 19.5841 12.3706 19.4774C11.2185 20.6946 9.98677 22.0365 8.73832 23.1466L19.0792 23.1536C19.0541 23.048 15.8201 19.8903 15.4063 19.4892C16.147 19.5581 16.9273 19.6542 17.6701 19.6286C18.3804 19.604 19.0618 19.3552 19.5463 18.8163C20.514 17.7402 20.0806 16.1791 19.9924 14.8844C20.7285 15.5452 21.4199 16.2465 22.1164 16.9486C22.6806 17.5173 23.2574 18.0741 23.7721 18.6889C23.6685 16.9449 23.7332 15.1584 23.7293 13.4099C23.7257 11.7933 23.6394 10.1094 23.7889 8.50035C24.5505 9.22065 25.3023 9.95108 26.0442 10.6917C26.5466 11.1885 27.1362 11.6691 27.5066 12.2767C27.5371 12.3257 27.5659 12.3757 27.593 12.4267C27.6202 12.4777 27.6455 12.5296 27.6692 12.5824C27.6928 12.6351 27.7146 12.6886 27.7345 12.7428C27.7545 12.797 27.7726 12.8519 27.7888 12.9073C27.805 12.9627 27.8193 13.0187 27.8317 13.0751C27.8442 13.1315 27.8546 13.1882 27.8632 13.2454C27.8718 13.3025 27.8784 13.3599 27.8831 13.4175C27.8877 13.4751 27.8904 13.5328 27.8911 13.5905C27.9086 14.7433 27.2524 15.4401 26.4923 16.1964C25.5927 17.0915 24.6479 17.9609 23.8296 18.9321C24.0869 19.8945 24.0451 20.9215 23.5418 21.7999C23.0958 22.5782 22.351 23.1937 21.4769 23.4178C20.5114 23.6651 19.9909 23.422 19.0881 23.1772C19.0782 23.1907 19.0688 23.2047 19.0584 23.2179C18.6236 23.7714 15.951 26.4197 15.4135 26.7523C15.3226 26.8077 15.2288 26.8576 15.1321 26.9021C15.0353 26.9466 14.9363 26.9852 14.8351 27.0181C14.7339 27.051 14.6311 27.0779 14.5267 27.0987C14.4223 27.1196 14.3171 27.1343 14.211 27.1429C12.592 27.273 11.6275 26.0163 10.5903 24.9934C9.96349 24.3753 9.31683 23.7605 8.63911 23.199C7.9591 23.4366 7.24811 23.5191 6.53855 23.3607C5.69501 23.1725 4.89983 22.5721 4.44355 21.8428C3.84902 20.8925 3.87101 19.8504 4.11477 18.7942C3.14732 17.7169 2.00621 16.7749 1.01029 15.7184C0.39294 15.0636 -0.0421371 14.4048 0.0032474 13.4565C0.0231079 13.0417 0.139667 12.6217 0.353153 12.2641C0.703781 11.6766 1.34057 11.1752 1.82367 10.691C2.5933 9.91957 3.35096 9.13294 4.14942 8.39107Z" fill="#FAB005"/>
</svg>
